<svg width="463.17998046875px" height="141.239990234375px" xmlns="http://www.w3.org/2000/svg" viewBox="18.410009765625006 4.3800048828125 463.17998046875 141.239990234375" style="background: rgba(89, 104, 134, 0) none repeat scroll 0% 0%;" preserveAspectRatio="xMidYMid"><defs><filter id="editing-hover" x="-100%" y="-100%" width="300%" height="300%"><feFlood flood-color="rgba(1.9607843137254888%,16.862745098039188%,29.01960784313726%,0)" result="flood"></feFlood><feComposite operator="in" in2="SourceAlpha" in="flood" result="shadow"></feComposite><feOffset dx="-4" dy="-4" in="SourceGraphic" result="offset-1"></feOffset><feOffset dx="4" dy="4" in="shadow" result="offset-2"></feOffset><feMerge><feMergeNode in="offset-2"></feMergeNode><feMergeNode in="offset-1"></feMergeNode></feMerge></filter></defs><g filter="url(#editing-hover)"><g transform="translate(89.36823987960815, 113.60499954223633)"><path d="M26.15 6.97L26.15 6.97L26.15 6.97Q20.77 6.97 15.84 4.86L15.84 4.86L15.84 4.86Q10.90 2.76 7.97-1.31L7.97-1.31L7.97-1.31Q5.04-5.38 4.42-10.21L4.42-10.21L4.42-10.21Q4.14-12.28 4.14-14.77L4.14-14.77L4.14-14.77Q4.14-17.25 4.76-21.32L4.76-21.32L4.76-21.32Q5.38-25.39 7.49-30.15L7.49-30.15L7.49-30.15Q9.59-34.91 12.49-38.57L12.49-38.57L12.49-38.57Q11.32-43.19 11.32-47.09L11.32-47.09L11.32-47.09Q11.32-50.99 12.21-54.37L12.21-54.37L12.21-54.37Q12.35-54.92 12.66-55.17L12.66-55.17L12.66-55.17Q12.97-55.41 13.11-55.41L13.11-55.41L13.11-55.41Q13.80-55.41 13.52-53.72L13.52-53.72L13.52-53.72Q13.25-52.03 13.25-48.89L13.25-48.89L13.25-48.89Q13.25-45.75 14.15-40.92L14.15-40.92L14.15-40.92Q19.67-48.02 27.12-51.27L27.12-51.27L27.12-51.27Q32.84-53.75 39.12-53.75L39.12-53.75L39.12-53.75Q40.92-53.75 42.85-53.54L42.85-53.54L42.85-53.54Q53.48-52.37 57.20-45.40L57.20-45.40L57.20-45.40Q58.72-42.50 58.72-39.40L58.72-39.40L58.72-39.40Q58.72-36.29 57.27-32.98L57.27-32.98L57.27-32.98Q54.23-26.36 46.85-23.18L46.85-23.18L46.85-23.18Q42.09-21.11 36.43-21.11L36.43-21.11L36.43-21.11Q34.02-21.11 31.53-21.46L31.53-21.46L31.53-21.46Q19.18-23.25 14.42-33.19L14.42-33.19L14.42-33.19Q12.77-30.84 11.01-25.32L11.01-25.32L11.01-25.32Q9.25-19.80 8.97-16.84L8.97-16.84L8.97-16.84Q8.69-13.87 8.69-11.87L8.69-11.87L8.69-11.87Q8.69-9.87 8.97-7.73L8.97-7.73L8.97-7.73Q9.45-3.93 11.87-0.86L11.87-0.86L11.87-0.86Q14.28 2.21 18.32 3.42L18.32 3.42L18.32 3.42Q22.36 4.62 25.32 4.62L25.32 4.62L25.32 4.62Q34.91 4.62 41.68 0.62L41.68 0.62L41.68 0.62Q45.75-1.79 48.06-4.86L48.06-4.86L48.06-4.86Q50.37-7.94 52.99-13.32L52.99-13.32L52.99-13.32Q53.41-14.21 53.85-13.94L53.85-13.94L53.85-13.94Q54.30-13.66 53.82-12.63L53.82-12.63L53.82-12.63Q51.20-7.31 48.96-4.21L48.96-4.21L48.96-4.21Q46.71-1.10 42.85 1.59L42.85 1.59L42.85 1.59Q35.12 6.97 26.15 6.97ZM15.80-35.40L15.80-35.40L15.80-35.40Q20.70-22.91 36.23-22.91L36.23-22.91L36.23-22.91Q44.99-22.91 50.27-27.81L50.27-27.81L50.27-27.81Q55.55-32.71 55.55-38.92L55.55-38.92L55.55-38.92Q55.55-45.13 50.16-48.58L50.16-48.58L50.16-48.58Q46.16-51.13 40.30-51.13L40.30-51.13L40.30-51.13Q34.43-51.13 28.50-47.75L28.50-47.75L28.50-47.75Q21.05-43.40 15.80-35.40ZM43.33 21.80L43.33 21.80L43.33 21.80Q40.30 21.80 38.64 20.53L38.64 20.53L38.64 20.53Q36.98 19.25 36.98 17.46L36.98 17.46L36.98 17.46Q36.98 15.66 38.02 13.39L38.02 13.39L38.02 13.39Q39.81 9.87 44.51 7.73L44.51 7.73L44.51 7.73Q48.02 6.07 53.82 4.66L53.82 4.66L53.82 4.66Q59.62 3.24 61.27 2.76L61.27 2.76L61.27 2.76Q63.76-1.59 67.21-12.77L67.21-12.77L67.21-12.77Q63.20-5.73 60.51-2.90L60.51-2.90L60.51-2.90Q57.82-0.07 55.06-0.07L55.06-0.07L55.06-0.07Q51.34-0.07 50.72-3.17L50.72-3.17L50.72-3.17Q50.44-3.66 50.58-4.62L50.58-4.62L50.58-4.62Q50.72-5.59 50.75-6.00L50.75-6.00L50.75-6.00Q50.78-6.42 51.20-7.35L51.20-7.35L51.20-7.35Q51.61-8.28 51.75-8.69L51.75-8.69L51.75-8.69Q52.51-10.28 53.06-11.18L53.06-11.18L53.06-11.18Q51.96-11.18 52.44-12.28L52.44-12.28L53.68-14.70L53.68-14.70Q56.03-19.18 57.55-22.29L57.55-22.29L57.55-22.29Q58.24-23.74 60.24-23.74L60.24-23.74L64.45-23.74L64.45-23.74Q64.31-23.60 63.76-23.18L63.76-23.18L63.76-23.18Q62.51-22.36 61.89-21.25L61.89-21.25L61.89-21.25Q59.41-16.97 55.68-9.04L55.68-9.04L55.68-9.04Q54.17-5.80 54.17-4.28L54.17-4.28L54.17-4.28Q54.17-2.76 54.68-2.14L54.68-2.14L54.68-2.14Q55.20-1.52 56.10-1.52L56.10-1.52L56.10-1.52Q57.41-1.52 59.75-4.28L59.75-4.28L59.75-4.28Q64.65-10.01 70.59-22.29L70.59-22.29L70.59-22.29Q71.35-23.74 73.28-23.74L73.28-23.74L77.00-23.74L77.00-23.74Q75.21-22.49 74.18-20.60L74.18-20.60L74.18-20.60Q73.14-18.70 71.93-15.46L71.93-15.46L71.93-15.46Q70.73-12.21 68.90-6.83L68.90-6.83L68.90-6.83Q67.07-1.45 66.10 1.24L66.10 1.24L66.10 1.24Q72.59-0.69 76.04-5.59L76.04-5.59L76.04-5.59Q77.56-7.73 80.39-13.18L80.39-13.18L80.39-13.18Q80.87-14.15 81.25-13.94L81.25-13.94L81.25-13.94Q81.63-13.73 81.63-13.39L81.63-13.39L81.63-13.39Q81.63-13.04 80.49-10.73L80.49-10.73L80.49-10.73Q79.35-8.42 78.18-6.45L78.18-6.45L78.18-6.45Q77.00-4.49 75.14-2.42L75.14-2.42L75.14-2.42Q73.28-0.35 71.00 0.86L71.00 0.86L71.00 0.86Q68.72 2.07 64.93 3.45L64.93 3.45L64.93 3.45Q59.62 13.11 54.23 17.66L54.23 17.66L54.23 17.66Q49.20 21.80 43.33 21.80ZM39.33 14.97L39.33 14.97L39.33 14.97Q38.57 16.49 38.57 17.77L38.57 17.77L38.57 17.77Q38.57 19.04 39.54 19.73L39.54 19.73L39.54 19.73Q40.50 20.42 41.95 20.42L41.95 20.42L41.95 20.42Q45.95 20.42 50.51 16.32L50.51 16.32L50.51 16.32Q55.06 12.21 58.51 7.52L58.51 7.52L60.03 4.97L60.03 4.97Q48.65 7.94 45.68 9.25L45.68 9.25L45.68 9.25Q41.26 11.18 39.33 14.97ZM97.77-18.77L97.77-18.77L97.77-18.77Q97.77-22.70 94.53-22.70L94.53-22.70L94.53-22.70Q94.25-22.70 93.98-22.70L93.98-22.70L93.98-22.70Q92.74-22.56 92.53-23.18L92.53-23.18L92.53-23.18Q92.32-23.81 93.15-24.01L93.15-24.01L93.15-24.01Q93.98-24.22 94.94-24.08L94.94-24.08L94.94-24.08Q98.53-23.53 99.84-20.70L99.84-20.70L99.84-20.70Q100.74-18.98 100.74-17.32L100.74-17.32L100.74-17.32Q100.74-11.39 96.39-5.66L96.39-5.66L96.39-5.66Q92.05 0.14 85.15 0.14L85.15 0.14L85.15 0.14Q82.59 0.14 81.01-1.31L81.01-1.31L81.01-1.31Q79.42-2.76 79.42-5.18L79.42-5.18L79.42-5.18Q79.42-8.07 82.73-14.97L82.73-14.97L82.73-14.97Q77.07-4.28 75.42-2.69L75.42-2.69L75.42-2.69Q74.73-2.07 74.73-3.11L74.73-3.11L74.73-3.11Q74.73-3.31 74.86-3.59L74.86-3.59L74.86-3.59Q77.28-6.76 84.49-20.84L84.49-20.84L84.49-20.84Q91.70-34.91 94.60-39.26L94.60-39.26L94.60-39.26Q96.95-42.64 99.15-42.64L99.15-42.64L99.15-42.64Q99.15-42.64 99.22-42.64L99.22-42.64L99.57-42.64L99.57-42.64Q99.64-42.64 100.77-42.44L100.77-42.44L100.77-42.44Q101.91-42.23 102.47-42.37L102.47-42.37L102.47-42.37Q100.19-39.95 95.29-32.71L95.29-32.71L95.29-32.71Q83.14-14.70 83.14-5.80L83.14-5.80L83.14-5.80Q83.14-2.14 85.49-1.66L85.49-1.66L85.49-1.66Q85.70-1.59 85.97-1.59L85.97-1.59L85.97-1.59Q88.11-1.59 91.32-5.42L91.32-5.42L91.32-5.42Q94.53-9.25 96.60-14.15L96.60-14.15L96.60-14.15Q97.77-16.70 97.77-18.77ZM107.30-10.63L107.30-10.63L107.30-10.63Q106.33-8.28 106.33-5.38L106.33-5.38L106.33-5.38Q106.33-3.45 107.19-2.31L107.19-2.31L107.19-2.31Q108.05-1.17 109.64-1.17L109.64-1.17L109.64-1.17Q115.92-1.17 121.03-12.97L121.03-12.97L121.03-12.97Q121.51-14.08 122.20-13.94L122.20-13.94L122.20-13.94Q122.48-13.87 122.48-13.59L122.48-13.59L122.48-13.59Q122.48-13.32 120.92-9.97L120.92-9.97L120.92-9.97Q119.37-6.62 117.78-4.55L117.78-4.55L117.78-4.55Q114.26 0.28 109.09 0.28L109.09 0.28L109.09 0.28Q106.33 0.28 104.40-1.52L104.40-1.52L104.40-1.52Q102.47-3.31 102.47-6.42L102.47-6.42L102.47-6.42Q102.47-9.52 103.95-13.01L103.95-13.01L103.95-13.01Q105.43-16.49 107.99-19.49L107.99-19.49L107.99-19.49Q110.54-22.49 113.85-23.87L113.85-23.87L113.85-23.87Q115.44-24.56 116.89-24.56L116.89-24.56L116.89-24.56Q118.34-24.56 119.58-23.74L119.58-23.74L119.58-23.74Q120.75-22.77 120.75-21.60L120.75-21.60L120.75-21.60Q120.75-17.46 115.78-13.66L115.78-13.66L115.78-13.66Q114.26-12.49 111.50-11.56L111.50-11.56L111.50-11.56Q108.74-10.63 107.30-10.63ZM118.89-21.67L118.89-21.67L118.89-21.67Q118.89-23.05 117.78-23.05L117.78-23.05L117.78-23.05Q115.85-23.05 111.92-18.29L111.92-18.29L111.92-18.29Q109.57-15.39 107.78-11.80L107.78-11.80L107.78-11.80Q108.95-11.80 111.19-12.63L111.19-12.63L111.19-12.63Q113.44-13.46 115.09-14.84L115.09-14.84L115.09-14.84Q118.89-18.08 118.89-21.67ZM130.48-27.67L130.48-27.67L130.48-27.67Q130.48-24.56 126.55-21.80L126.55-21.80L126.55-21.80Q127.93-21.74 130.24-21.74L130.24-21.74L130.24-21.74Q132.55-21.74 136.07-22.08L136.07-22.08L136.07-22.08Q136.21-21.87 136.21-20.98L136.21-20.98L136.21-20.98Q136.21-20.08 135.38-18.32L135.38-18.32L135.38-18.32Q134.55-16.56 133.89-15.28L133.89-15.28L133.89-15.28Q133.24-14.01 132.65-12.87L132.65-12.87L132.65-12.87Q132.07-11.73 131.34-10.07L131.34-10.07L131.34-10.07Q130.62-8.42 130.13-7.04L130.13-7.04L130.13-7.04Q128.41-1.79 130.69-1.79L130.69-1.79L130.69-1.79Q133.58-1.79 139.24-13.32L139.24-13.32L139.24-13.32Q139.73-14.21 140.04-14.01L140.04-14.01L140.04-14.01Q140.35-13.80 140.35-13.49L140.35-13.49L140.35-13.49Q140.35-13.18 139.45-11.35L139.45-11.35L139.45-11.35Q138.55-9.52 137.52-7.59L137.52-7.59L137.52-7.59Q136.48-5.66 134.27-3.11L134.27-3.11L134.27-3.11Q131.65 0.07 129.24 0.07L129.24 0.07L129.24 0.07Q126.55 0.07 125.51-3.17L125.51-3.17L125.51-3.17Q125.30-3.80 125.30-5.04L125.30-5.04L125.30-5.04Q125.30-6.28 126.10-8.35L126.10-8.35L126.10-8.35Q126.89-10.42 128.62-13.39L128.62-13.39L128.62-13.39Q130.34-16.35 130.55-16.87L130.55-16.87L130.55-16.87Q130.76-17.39 130.76-17.87L130.76-17.87L130.76-17.87Q130.76-20.01 125.24-20.15L125.24-20.15L124.41-17.94L124.41-17.94Q120.06-6.56 116.06-2.69L116.06-2.69L116.06-2.69Q115.37-2.07 115.37-3.11L115.37-3.11L115.37-3.11Q115.37-3.31 115.51-3.59L115.51-3.59L115.51-3.59Q119.37-8.69 122.20-15.66L122.20-15.66L122.20-15.66Q125.03-22.63 126.13-28.91L126.13-28.91L126.13-28.91Q126.55-31.05 128.06-31.05L128.06-31.05L128.06-31.05Q129.58-31.05 130.27-29.12L130.27-29.12L130.27-29.12Q130.48-28.50 130.48-27.67ZM178.99-2.48L178.99-2.48L178.99-2.48Q172.57 2.69 164.77 2.69L164.77 2.69L164.77 2.69Q155.87 2.69 153.80-2.28L153.80-2.28L153.80-2.28Q153.32-3.45 153.32-5.00L153.32-5.00L153.32-5.00Q153.32-6.56 154.91-8.35L154.91-8.35L154.91-8.35Q157.39-11.18 161.81-11.18L161.81-11.18L161.81-11.18Q164.77-11.18 167.77-10.11L167.77-10.11L167.77-10.11Q170.78-9.04 178.43-4.97L178.43-4.97L178.43-4.97Q181.88-8.28 185.33-13.80L185.33-13.80L185.33-13.80Q188.78-19.32 191.30-24.46L191.30-24.46L191.30-24.46Q193.82-29.60 197.44-35.67L197.44-35.67L197.44-35.67Q201.07-41.75 204.65-45.75L204.65-45.75L204.65-45.75Q196.93-50.37 188.23-50.37L188.23-50.37L188.23-50.37Q184.64-50.37 180.92-49.61L180.92-49.61L180.92-49.61Q170.22-47.33 164.63-40.30L164.63-40.30L164.63-40.30Q161.18-36.02 161.18-32.15L161.18-32.15L161.18-32.15Q161.18-26.91 166.22-25.32L166.22-25.32L166.22-25.32Q168.02-24.84 169.33-24.84L169.33-24.84L169.33-24.84Q170.64-24.84 172.26-25.25L172.26-25.25L172.26-25.25Q173.88-25.67 175.47-27.19L175.47-27.19L175.47-27.19Q178.50-30.22 178.71-32.84L178.71-32.84L178.71-32.84Q178.78-33.47 179.50-33.29L179.50-33.29L179.50-33.29Q180.23-33.12 180.09-32.22L180.09-32.22L180.09-32.22Q179.40-27.19 174.78-24.56L174.78-24.56L174.78-24.56Q171.95-23.05 169.12-23.05L169.12-23.05L165.53-23.67L165.53-23.67Q160.29-25.46 158.63-30.36L158.63-30.36L158.63-30.36Q157.94-32.22 157.94-34.09L157.94-34.09L157.94-34.09Q157.94-37.88 160.77-41.61L160.77-41.61L160.77-41.61Q166.84-49.75 182.30-52.03L182.30-52.03L182.30-52.03Q185.33-52.44 188.30-52.44L188.30-52.44L188.30-52.44Q197.89-52.44 206.59-47.89L206.59-47.89L206.59-47.89Q209.28-50.99 211.55-52.61L211.55-52.61L211.55-52.61Q213.83-54.23 215.21-54.23L215.21-54.23L215.21-54.23Q215.97-54.23 216.11-53.92L216.11-53.92L216.11-53.92Q216.25-53.61 216.07-53.44L216.07-53.44L216.07-53.44Q215.90-53.27 215.63-53.27L215.63-53.27L215.63-53.27Q214.45-53.27 212.59-50.78L212.59-50.78L212.59-50.78Q210.73-48.30 209.55-46.16L209.55-46.16L209.55-46.16Q216.94-41.26 220.80-33.60L220.80-33.60L220.80-33.60Q223.91-27.46 223.91-20.22L223.91-20.22L223.91-20.22Q223.91-11.25 219.63-5.93L219.63-5.93L219.63-5.93Q216.11-1.59 211.07 0.21L211.07 0.21L211.07 0.21Q205.07 2.35 199.20 2.35L199.20 2.35L199.20 2.35Q187.34 2.35 178.99-2.48ZM180.64-3.73L180.64-3.73L180.64-3.73Q187.61 0.41 197.00 0.41L197.00 0.41L197.00 0.41Q207.90 0.41 214.38-5.80L214.38-5.80L214.38-5.80Q219.56-10.83 219.56-19.73L219.56-19.73L219.56-19.73Q219.56-26.08 217.07-31.67L217.07-31.67L217.07-31.67Q213.97-38.78 207.90-43.54L207.90-43.54L207.90-43.54Q205.90-40.43 200.20-31.02L200.20-31.02L200.20-31.02Q194.51-21.60 190.58-15.73L190.58-15.73L190.58-15.73Q186.65-9.87 184.37-7.42L184.37-7.42L184.37-7.42Q182.09-4.97 180.64-3.73ZM176.64-3.59L176.64-3.59L176.64-3.59Q168.57-7.45 166.43-8.21L166.43-8.21L166.43-8.21Q164.29-8.97 162.25-8.97L162.25-8.97L162.25-8.97Q160.22-8.97 159.01-7.45L159.01-7.45L159.01-7.45Q157.80-5.93 157.80-4.73L157.80-4.73L157.80-4.73Q157.80-3.52 158.36-2.42L158.36-2.42L158.36-2.42Q159.80 0.55 164.29 0.55L164.29 0.55L164.29 0.55Q170.91 0.55 176.64-3.59ZM236.26-27.67L236.26-27.67L236.26-27.67Q236.26-24.56 232.32-21.80L232.32-21.80L232.32-21.80Q233.70-21.74 236.01-21.74L236.01-21.74L236.01-21.74Q238.33-21.74 241.85-22.08L241.85-22.08L241.85-22.08Q241.98-21.87 241.98-20.98L241.98-20.98L241.98-20.98Q241.98-20.08 241.16-18.32L241.16-18.32L241.16-18.32Q240.33-16.56 239.67-15.28L239.67-15.28L239.67-15.28Q239.02-14.01 238.43-12.87L238.43-12.87L238.43-12.87Q237.84-11.73 237.12-10.07L237.12-10.07L237.12-10.07Q236.39-8.42 235.91-7.04L235.91-7.04L235.91-7.04Q234.19-1.79 236.46-1.79L236.46-1.79L236.46-1.79Q239.36-1.79 245.02-13.32L245.02-13.32L245.02-13.32Q245.50-14.21 245.81-14.01L245.81-14.01L245.81-14.01Q246.12-13.80 246.12-13.49L246.12-13.49L246.12-13.49Q246.12-13.18 245.23-11.35L245.23-11.35L245.23-11.35Q244.33-9.52 243.29-7.59L243.29-7.59L243.29-7.59Q242.26-5.66 240.05-3.11L240.05-3.11L240.05-3.11Q237.43 0.07 235.01 0.07L235.01 0.07L235.01 0.07Q232.32 0.07 231.29-3.17L231.29-3.17L231.29-3.17Q231.08-3.80 231.08-5.04L231.08-5.04L231.08-5.04Q231.08-6.28 231.87-8.35L231.87-8.35L231.87-8.35Q232.67-10.42 234.39-13.39L234.39-13.39L234.39-13.39Q236.12-16.35 236.33-16.87L236.33-16.87L236.33-16.87Q236.53-17.39 236.53-17.87L236.53-17.87L236.53-17.87Q236.53-20.01 231.01-20.15L231.01-20.15L230.18-17.94L230.18-17.94Q225.84-6.56 221.84-2.69L221.84-2.69L221.84-2.69Q221.15-2.07 221.15-3.11L221.15-3.11L221.15-3.11Q221.15-3.31 221.28-3.59L221.28-3.59L221.28-3.59Q225.15-8.69 227.98-15.66L227.98-15.66L227.98-15.66Q230.81-22.63 231.91-28.91L231.91-28.91L231.91-28.91Q232.32-31.05 233.84-31.05L233.84-31.05L233.84-31.05Q235.36-31.05 236.05-29.12L236.05-29.12L236.05-29.12Q236.26-28.50 236.26-27.67ZM247.99-10.63L247.99-10.63L247.99-10.63Q247.02-8.28 247.02-5.38L247.02-5.38L247.02-5.38Q247.02-3.45 247.88-2.31L247.88-2.31L247.88-2.31Q248.75-1.17 250.33-1.17L250.33-1.17L250.33-1.17Q256.61-1.17 261.72-12.97L261.72-12.97L261.72-12.97Q262.20-14.08 262.89-13.94L262.89-13.94L262.89-13.94Q263.17-13.87 263.17-13.59L263.17-13.59L263.17-13.59Q263.17-13.32 261.61-9.97L261.61-9.97L261.61-9.97Q260.06-6.62 258.47-4.55L258.47-4.55L258.47-4.55Q254.96 0.28 249.78 0.28L249.78 0.28L249.78 0.28Q247.02 0.28 245.09-1.52L245.09-1.52L245.09-1.52Q243.16-3.31 243.16-6.42L243.16-6.42L243.16-6.42Q243.16-9.52 244.64-13.01L244.64-13.01L244.64-13.01Q246.12-16.49 248.68-19.49L248.68-19.49L248.68-19.49Q251.23-22.49 254.54-23.87L254.54-23.87L254.54-23.87Q256.13-24.56 257.58-24.56L257.58-24.56L257.58-24.56Q259.03-24.56 260.27-23.74L260.27-23.74L260.27-23.74Q261.44-22.77 261.44-21.60L261.44-21.60L261.44-21.60Q261.44-17.46 256.47-13.66L256.47-13.66L256.47-13.66Q254.96-12.49 252.20-11.56L252.20-11.56L252.20-11.56Q249.44-10.63 247.99-10.63ZM259.58-21.67L259.58-21.67L259.58-21.67Q259.58-23.05 258.47-23.05L258.47-23.05L258.47-23.05Q256.54-23.05 252.61-18.29L252.61-18.29L252.61-18.29Q250.26-15.39 248.47-11.80L248.47-11.80L248.47-11.80Q249.64-11.80 251.88-12.63L251.88-12.63L251.88-12.63Q254.13-13.46 255.78-14.84L255.78-14.84L255.78-14.84Q259.58-18.08 259.58-21.67ZM282.90-18.70L282.90-18.70Q281.66-17.46 279.38-13.08L279.38-13.08L279.38-13.08Q277.10-8.69 276.66-6.52L276.66-6.52L276.66-6.52Q276.21-4.35 276.21-3.00L276.21-3.00L276.21-3.00Q276.21-1.66 277.24-1.66L277.24-1.66L277.24-1.66Q278.55-1.66 280.49-4.07L280.49-4.07L280.49-4.07Q283.31-7.59 286.07-13.25L286.07-13.25L286.07-13.25Q286.35-13.87 286.70-13.94L286.70-13.94L286.70-13.94Q287.25-14.15 287.25-13.52L287.25-13.52L287.25-13.52Q287.25-13.18 287.04-12.70L287.04-12.70L287.04-12.70Q280.69 0.14 276.35 0.14L276.35 0.14L276.35 0.14Q274.34 0.14 273.10-1.79L273.10-1.79L273.10-1.79Q272.48-2.83 272.48-4.55L272.48-4.55L272.48-4.55Q272.48-6.28 273.17-8.76L273.17-8.76L273.17-8.76Q267.65 0.14 263.65 0.14L263.65 0.14L263.65 0.14Q262.55 0.14 261.65-0.55L261.65-0.55L261.65-0.55Q259.58-2.00 259.58-5.52L259.58-5.52L259.58-5.52Q259.58-12.28 265.44-19.25L265.44-19.25L265.44-19.25Q268.76-23.12 273.59-24.29L273.59-24.29L273.59-24.29Q274.90-24.63 276.07-24.63L276.07-24.63L276.07-24.63Q279.24-24.63 281.45-22.43L281.45-22.43L281.45-22.43Q282.14-21.67 281.87-20.98L281.87-20.98L281.87-20.98Q281.59-20.29 280.69-20.42L280.69-20.42L280.69-20.42Q279.93-22.91 277.38-22.91L277.38-22.91L277.38-22.91Q274.41-22.91 270.07-18.22L270.07-18.22L270.07-18.22Q267.58-15.46 265.44-11.73L265.44-11.73L265.44-11.73Q262.75-7.25 262.75-4.55L262.75-4.55L262.75-4.55Q262.75-1.86 264.48-1.86L264.48-1.86L264.48-1.86Q268.62-1.86 275.31-14.56L275.31-14.56L275.31-14.56Q276.62-17.11 277.52-18.04L277.52-18.04L277.52-18.04Q278.42-18.98 279.80-18.98L279.80-18.98L279.80-18.98Q280.07-18.98 281.21-18.77L281.21-18.77L281.21-18.77Q282.35-18.56 282.90-18.70L282.90-18.70ZM318.71-22.63L318.71-22.63L318.71-22.63Q310.29-7.66 310.29-3.31L310.29-3.31L310.29-3.31Q310.29-1.38 311.60-1.38L311.60-1.38L311.60-1.38Q313.26-1.38 315.40-3.86L315.40-3.86L315.40-3.86Q318.64-7.80 321.06-13.32L321.06-13.32L321.06-13.32Q321.47-14.28 321.88-14.08L321.88-14.08L321.88-14.08Q322.30-13.87 322.30-13.52L322.30-13.52L322.30-13.52Q322.30-13.18 321.61-11.80L321.61-11.80L321.61-11.80Q320.92-10.42 320.50-9.59L320.50-9.59L320.50-9.59Q320.09-8.76 318.68-6.42L318.68-6.42L318.68-6.42Q317.26-4.07 316.26-2.97L316.26-2.97L316.26-2.97Q315.26-1.86 313.71-0.79L313.71-0.79L313.71-0.79Q312.16 0.28 310.19 0.28L310.19 0.28L310.19 0.28Q308.22 0.28 306.84-1.66L306.84-1.66L306.84-1.66Q306.22-2.55 306.22-4.11L306.22-4.11L306.22-4.11Q306.22-5.66 306.91-7.87L306.91-7.87L306.91-7.87Q307.60-10.07 310.71-15.04L310.71-15.04L310.71-15.04Q311.47-16.28 311.47-17.01L311.47-17.01L311.47-17.01Q311.47-17.73 310.33-17.73L310.33-17.73L310.33-17.73Q309.19-17.73 306.22-14.97L306.22-14.97L306.22-14.97Q303.25-12.21 299.98-7.52L299.98-7.52L299.98-7.52Q296.70-2.83 296.08 0L296.08 0L296.08 0Q294.91 0 294.35-0.97L294.35-0.97L294.35-0.97Q293.80-1.93 293.80-2.62L293.80-2.62L293.80-2.62Q293.80-5.45 297.60-13.39L297.60-13.39L297.60-13.39Q298.84-16.01 298.91-16.94L298.91-16.94L298.91-16.94Q298.98-17.87 298.67-17.91L298.67-17.91L298.67-17.91Q298.36-17.94 297.80-17.66L297.80-17.66L297.80-17.66Q296.56-17.04 294.01-14.63L294.01-14.63L294.01-14.63Q289.18-10.21 284.49-1.17L284.49-1.17L284.49-1.17Q284.14-0.41 283.62-0.24L283.62-0.24L283.62-0.24Q283.11-0.07 281.59 0L281.59 0L281.59 0Q280.07 0.07 279.59 0.35L279.59 0.35L279.59 0.35Q280.83-2.07 283.94-8.69L283.94-8.69L283.94-8.69Q289.52-20.56 291.39-22.36L291.39-22.36L291.39-22.36Q292.22-23.18 293.66-23.18L293.66-23.18L293.66-23.18Q293.94-23.18 295.08-22.98L295.08-22.98L295.08-22.98Q296.22-22.77 296.77-22.91L296.77-22.91L296.77-22.91Q294.22-21.53 288.42-9.94L288.42-9.94L288.42-9.94Q291.66-13.94 293.08-15.18L293.08-15.18L293.08-15.18Q294.49-16.42 295.18-17.04L295.18-17.04L295.18-17.04Q295.87-17.66 296.25-18.01L296.25-18.01L296.25-18.01Q296.63-18.35 297.36-19.01L297.36-19.01L297.36-19.01Q298.08-19.67 298.46-19.98L298.46-19.98L298.46-19.98Q298.84-20.29 299.53-20.84L299.53-20.84L299.53-20.84Q300.22-21.39 300.60-21.56L300.60-21.56L300.60-21.56Q300.98-21.74 301.63-22.15L301.63-22.15L301.63-22.15Q302.29-22.56 302.60-22.56L302.60-22.56L302.60-22.56Q302.91-22.56 303.46-22.74L303.46-22.74L303.46-22.74Q304.01-22.91 304.22-22.63L304.22-22.63L304.22-22.63Q305.60-22.08 305.60-20.91L305.60-20.91L305.60-20.91Q305.60-19.87 303.25-15.59L303.25-15.59L303.25-15.59Q300.91-11.32 300.22-9.94L300.22-9.94L300.22-9.94Q303.25-13.73 306.02-16.18L306.02-16.18L306.02-16.18Q308.78-18.63 312.54-20.70L312.54-20.70L312.54-20.70Q316.30-22.77 318.02-22.77L318.02-22.77L318.02-22.77Q318.44-22.77 318.71-22.63Z" fill="#000000"></path></g></g><style>text {
  font-size: 64px;
  font-family: Arial Black;
  dominant-baseline: central;
  text-anchor: middle;
}</style></svg>